<?xml version="1.0" encoding="utf-8"?>
<!-- Generator: Adobe Illustrator 20.1.0, SVG Export Plug-In . SVG Version: 6.00 Build 0)  -->
<svg version="1.1" id="Layer_1" xmlns="http://www.w3.org/2000/svg" xmlns:xlink="http://www.w3.org/1999/xlink" x="0px" y="0px"
	 width="3952" height="685.8" viewBox="0 0 3952 685.8" style="enable-background:new 0 0 3952 685.8;" xml:space="preserve">
<style type="text/css">
	.st0{fill:#009BDE;}
	.st1{fill:#0F488A;}
	.st2{fill:url(#Fill-6_1_);}
</style>
<g id="Symbols">
	<g id="Logo-_x28_Colour_x29_">
		<g id="Logo">
			<path id="Fill-1" class="st0" d="M3550,536.9c-33.2,0-61.2-11-61.2-59.2V243H3592v-32.2h-103.2V110.6H3452v100.2h-57.5V243h57.5
				v236.2c0,88.2,66.3,91.4,93.6,91.4c17.7,0,33.9-2.9,47.9-6.6v-34.4C3581,534,3567,536.9,3550,536.9L3550,536.9z M3281.5,565.4
				h36.1V210.8h-36.1v125.9v28.7V565.4z M3279.2,164.9h40.5v-54.1h-40.5V164.9z M3026.1,204.2c-69.3,0-128.3,24.9-153.3,38V277v43.1
				v245.3h36.1v-302c30.2-11.7,70-22.7,113.5-22.7c83.3,0,105.4,41.8,105.4,93.6v231.1h36.8v-231
				C3164.7,248.1,3113.9,204.2,3026.1,204.2L3026.1,204.2z M2720,565.4h36.1V210.8H2720V565.4z M2717.7,164.9h40.5v-54.1h-40.5
				V164.9z M2626.4,142.9v-32.2c-24.9-10-66.5-11.6-90-4.3c-35.5,11-55.2,43.6-55.2,104.4h-56.8V243h56.8v322.5h36.9V243h106.1
				v-32.2h-106.1c0-41.9,10.3-62.9,29.6-71.2C2566.1,131.6,2599.6,133.6,2626.4,142.9L2626.4,142.9z M3798.7,517.9
				c-39.1-102.4-78.9-204.7-117.2-307.1h-39.8L3781,565.4c-16.2,36.4-46.1,81.6-104.1,52.8v33.6c7.4,2.9,20.6,6.6,33.9,6.6
				c36.9,0,79.6-19,109.1-97.3L3952,210.8h-39.1L3798.7,517.9z"/>
			<path id="Fill-4" class="st1" d="M1549.6,508.6c84,0,110.5-47,110.5-122.1c0-75.2-26.5-122.2-110.5-122.2
				c-84.3,0-110.5,48.1-110.5,122.2C1439.1,460.5,1465.3,508.6,1549.6,508.6 M2101.9,362.5h195.9c-1.7-16.7-6.4-34.2-13.6-48.4
				c-16.7-33.2-45.4-48.5-84.2-48.5C2133.1,265.6,2107.7,308,2101.9,362.5 M1088.2,386.4c0,77.6,29.1,120.8,114,120.8
				c30.6,0,61.8-5.7,90.3-16.3l20.2-7.6v62.1l-9.6,3.4c-33.3,11.9-68.9,18.2-104.5,18.2c-120.1,0-174.6-70.9-174.6-180.6
				c0-109.3,54.8-180.6,174.6-180.6c35.5,0,70.9,6.9,104.2,18.1l9.8,3.3V289l-20-7c-28.6-10.1-59.9-16.4-90.6-16.4
				C1117.7,265.6,1088.2,309.3,1088.2,386.4 M1549.6,205.8c119.4,0,174.6,71.8,174.6,180.6S1669,567,1549.6,567
				S1375,495.3,1375,386.4C1375,277.6,1430.2,205.8,1549.6,205.8 M1867.5,282.8v278.9h-64.1v-320l9-3.6
				c49.9-20.2,112.2-31.2,166.2-31.7l15-0.1v59.6l-14.4,0.4C1941,267.2,1904.1,273.4,1867.5,282.8 M2363.4,406.4v13.2H2103
				c0.8,3.1,1.8,6.3,3.1,9.2l0.7,1.6l0.3,1.7c9,56.8,51.3,74.4,107.8,74.4c33.2,0,74.7-5.6,104.1-20.8l21.9-11.4v66.4l-8.5,3.8
				c-35.3,15.5-81.3,21.9-120.3,21.9c-114.4,0-176.7-62.7-176.7-173.3c0-98.9,49.6-186.6,166.8-186.6c114.4,0,161.9,86.2,161.9,182
				C2364.1,394.3,2364.1,400.5,2363.4,406.4"/>
			<linearGradient id="Fill-6_1_" gradientUnits="userSpaceOnUse" x1="0" y1="342.8521" x2="964.9999" y2="342.8521">
				<stop  offset="0" style="stop-color:#0F488A"/>
				<stop  offset="1" style="stop-color:#009BDE"/>
			</linearGradient>
			<path id="Fill-6" class="st2" d="M887.5,157.1L887.5,157.1c7.9-0.6,14.2-7.1,14.2-15.2c0-5.8-3.3-10.9-8.1-13.4l-3.9-2.4
				L727,24.6l0,0c-2.4-1.6-5.2-2.5-8.3-2.5c-8.4,0-15.1,6.7-15.1,15.1c0,5.7,3.1,10.7,7.8,13.2l8,5l120.3,75.1
				c-18.6,2.9-35.9,7.4-52,14.1L743.5,117c-2.4-1.7-5.4-2.7-8.6-2.7c-8.3,0-15.1,6.8-15.1,15.1c0,5.4,2.9,10.2,7.1,12.9l0.1,0.1
				l0.3,0.2l29.8,18.6c25.4,15.8,25.2,17.7,51.4,8.7C832.1,161.3,858.2,158.2,887.5,157.1L887.5,157.1z M671.2,318.3L671.2,318.3
				l-110.5-69c-2.5-1.8-5.5-2.8-8.7-2.8c-8.4,0-15.2,6.7-15.2,15.1c0,5.2,2.7,9.9,6.7,12.6l0,0l0.3,0.2l0.3,0.2l74.3,46.4l20.3,12.7
				l15.5,9.7c2.5,1.8,5.5,2.9,8.8,2.9c8.3,0,15.1-6.8,15.1-15.1C678.2,325.7,675.4,321,671.2,318.3L671.2,318.3z M150.3,592.5
				c3.8,0,7.2,1.5,9.8,3.8c53.7,39.1,118.1,60.1,184.9,60.3c3.2,0,6.5,0,9.7-0.1l11.1-0.3L148.1,520.3v-0.1
				c-4.2-2.7-6.9-7.4-6.9-12.7c0-8.3,6.8-15.1,15.2-15.1c3.5,0,6.7,1.2,9.3,3.2L408.4,647c26.7,15.8,32.5,25.2-2.7,33.5l-1.7,0.3
				c-19.5,3.3-39.2,5-59,4.9c-73.6-0.2-144.4-23.5-203.3-66.9c-0.2-0.2-0.3-0.3-0.4-0.4c-3.4-2.7-5.5-6.8-5.5-11.5
				C135.7,599,142.2,592.4,150.3,592.5L150.3,592.5z M112.1,462.2c4.8,2.6,8,7.6,8,13.3c0,8.4-6.8,15.1-15.1,15.1
				c-2.9,0-5.6-0.8-7.9-2.2l-0.2-0.2l-76.9-48c-5-2.5-8.4-7.6-8.4-13.6c0-8.3,6.8-15.1,15.2-15.1c3,0,5.8,0.9,8.1,2.4l0,0
				L112.1,462.2z M208.7,440.4L23.9,325c-2.5-1.8-5.5-2.8-8.8-2.8C6.8,322.2,0,329,0,337.3c0,5.4,2.9,10.2,7.1,12.9l0,0L193,466.1
				c2.5,1.7,5.5,2.8,8.7,2.8c8.3,0,15.1-6.8,15.1-15.1C216.8,448,213.5,443,208.7,440.4L208.7,440.4z M377.5,52.9
				c4.1,2.7,6.8,7.4,6.8,12.6c0,8.4-6.8,15.1-15.1,15.1c-3.1,0-6.1-1-8.5-2.6l-0.3-0.2l-79.9-49.9l0,0c-4.3-2.7-7.1-7.4-7.1-12.8
				c0-8.3,6.8-15.1,15.1-15.1c3.4,0,6.6,1.1,9.1,3l79,49.3l0.3,0.2l0.3,0.2L377.5,52.9z M169.8,87.5c4.5,2.6,7.6,7.5,7.6,13.1
				c0,8.4-6.8,15.1-15.1,15.1c-2.9,0-5.5-0.8-7.8-2.2h-0.1l-0.3-0.2l-0.3-0.2l-24.9-15.5l-0.3-0.2l-0.3-0.2l0,0
				c-4.2-2.7-6.9-7.4-6.9-12.7c0-8.3,6.8-15.1,15.1-15.1c3.2,0,6.1,1,8.5,2.7l24.5,15.3L169.8,87.5z M88,200.8l-30.5-19l-0.3-0.2
				l-0.1-0.1c-2.3-1.5-5.1-2.3-8-2.3c-8.3,0-15.1,6.7-15.1,15.1c0,5.7,3.2,10.7,7.9,13.3l30.4,19l0.2,0.1c2.4,1.6,5.2,2.5,8.3,2.5
				c8.3,0,15.1-6.7,15.1-15.1C95.9,208.3,92.7,203.4,88,200.8L88,200.8z M131.9,230.8c3.2,0,6.1,1,8.5,2.7l28,17.4l1.7-3.1
				c5.1-9.5,10.9-18.6,17.4-27.1l2.2-2.9L78.8,148.5c-4.6-2.6-7.7-7.6-7.7-13.2c0-8.3,6.8-15.1,15.2-15.1c3.3,0,6.4,1.1,8.9,2.9
				l118.5,74c16.8,10.4,17.3,16.5,2.9,32.4l-2.7,3.2c-7.8,9.4-14.6,19.6-20.1,30.5l-0.7,1.4c-10.7,21.7-15.7,26.9-38.3,13.4
				l-30.5-19l-0.9-0.5l-0.1-0.1l0,0c-4-2.7-6.6-7.3-6.6-12.5C116.8,237.6,123.6,230.8,131.9,230.8L131.9,230.8z M87.6,282.7
				c4.5,2.6,7.6,7.5,7.6,13.1c0,8.4-6.8,15.1-15.1,15.1c-3.2,0-6.2-1-8.6-2.7l0,0l-54.2-33.8c-4.6-2.6-7.7-7.5-7.7-13.2
				c0-8.3,6.8-15.1,15.1-15.1c3,0,5.7,0.8,8,2.3l0.1,0.1l0.3,0.2l54.4,33.9L87.6,282.7L87.6,282.7z M287.8,489.7
				c4,2.7,6.5,7.3,6.5,12.5c0,8.4-6.8,15.1-15.1,15.1c-3.3,0-6.4-1.1-8.9-2.9l-25.2-15.7l-0.3-0.2l-0.3-0.2l0,0
				c-4-2.7-6.6-7.3-6.6-12.5c0-8.3,6.8-15.1,15.1-15.1c2.7,0,5.3,0.7,7.5,2h0.1l1,0.6L287.8,489.7L287.8,489.7z M168.4,333.1
				c4.2,2.7,7,7.4,7,12.8c0,8.4-6.8,15.1-15.1,15.1c-3.3,0-6.4-1.1-8.8-2.9l-27.9-17.4l-0.3-0.2l-0.3-0.2l0,0
				c-4.1-2.7-6.7-7.3-6.7-12.6c0-8.4,6.8-15.1,15.1-15.1c3.3,0,6.3,1,8.7,2.8L168.4,333.1L168.4,333.1z M418.5,160.6L209.9,30.4l0,0
				c-2.4-1.6-5.2-2.5-8.3-2.5c-8.4,0-15.2,6.7-15.2,15.1c0,5.7,3.1,10.7,7.8,13.2l139,86.8l-9.7,1c-15.2,1.6-30.2,5-44.6,10.1
				l-1.5,0.5l-55-34.3c-2.4-1.7-5.4-2.7-8.6-2.7c-8.3,0-15.1,6.7-15.1,15.1c0,5.4,2.9,10.2,7.1,12.9l0.1,0.1l0.3,0.2l46.8,29.2
				c17,10.2,15.5,11.9,44.4,2.7l8.3-2.2l7.8-1.6l4.5-0.8c9-1.5,18.1-2.1,27.2-2.1c13.6,0,27.2,1.7,40.5,5c7.2,1.8,14.4,4.1,21.3,6.8
				h0.1l0,0c1.6,0.7,3.4,1.2,5.3,1.2c6.9,0,12.5-5.6,12.5-12.4C425.1,166.9,422.4,162.7,418.5,160.6L418.5,160.6z M420.9,0.5
				c2.4,0,4.7,0.6,6.7,1.6l0.3,0.1l56,34.9c5.1,3.2,9.1,4.9,11,11.3c0.4,1.3,0.6,2.7,0.6,4.2c0,8.4-6.8,15.2-15.2,15.2
				c-2.7,0-5.3-0.7-7.5-2l0,0c-0.4-0.2-0.7-0.5-1.1-0.7l-47.8-29.8l-9.9-6.2c-4.9-2.5-8.2-7.6-8.1-13.4
				C405.8,7.3,412.6,0.5,420.9,0.5L420.9,0.5z M434.5,123.9l-0.2-0.1l0,0l-21.5-13.3l0.1,0.1l-0.3-0.2l-0.2-0.1
				c-4.1-2.7-6.8-7.4-6.8-12.6c0-8.3,6.8-15.1,15.1-15.1c3.2,0,6.1,1,8.6,2.7L450,98.4c4.4,2.6,7.4,7.4,7.4,12.9
				c0,8.3-6.7,14.9-15,14.9C439.4,126.1,436.7,125.3,434.5,123.9L434.5,123.9z M116.3,557.7L116.3,557.7L116.3,557.7l-0.2-0.2
				l-0.1-0.1l0,0l-0.1-0.1c-1.9-2-3.7-4-5.5-6l0,0l-0.1-0.1c-2.7-3.3-6.8-5.5-11.4-5.5c-8.1,0-14.7,6.5-14.7,14.6
				c0,3.5,1.3,6.8,3.3,9.3v0.1l0.2,0.2l0,0l0.1,0.1l0.1,0.1l0,0l0.1,0.1l0.1,0.1l0,0c2.1,2.3,4.1,4.6,6.3,6.8l0,0l0.1,0.1l0.1,0.1
				l0.5,0.5h0.1l0.1,0.1l0.1,0.1c2.6,2.5,6.2,4.1,10.1,4.1c8.1,0,14.6-6.5,14.6-14.6C120.2,563.9,118.8,560.4,116.3,557.7
				L116.3,557.7z M324.9,515.5c-8.4,0-15.2,6.7-15.2,15.1c0,5.6,3.1,10.5,7.6,13.2l149.2,93c26.6,16.9,39.1,21.8,65,5l-0.1-0.1
				l4.6-2.9c10-6.2,19.6-13,28.9-20.2l1.8-1.4l0.2,0.1c24.1-19.1,16.3-25.7-3.9-38l-131.8-82.2c-2.4-1.7-5.4-2.7-8.6-2.7
				c-8.4,0-15.2,6.7-15.2,15.1c0,5.7,3.1,10.6,7.7,13.2l125,78l-4.1,2.9c-10,7.1-20.4,13.6-31.2,19.6l-1.7,0.9l-170-106.2l-0.3-0.2
				l0,0C330.4,516.3,327.8,515.5,324.9,515.5L324.9,515.5z M654.1,471.9L654.1,471.9l-0.4-0.2l-0.3-0.2l-0.3-0.2l-117.6-73.4
				c-22.2-13.8-25.6-7.2-34.3,11.3c-5.2,11.9-11.7,23.2-19.5,33.6c-17.9,24-21.5,26.5,8,44.2l21.6,13.5l11.1,6.9l0.3,0.2l0,0
				c2.3,1.5,5.1,2.3,8.1,2.4c8.3,0,15.1-6.7,15.1-15.1c0-5.6-3.1-10.5-7.6-13.1l-0.3-0.2l-34-21.2l2.1-2.9
				c6.3-8.7,11.9-18,16.7-27.6l1.6-3.3l98.6,61.5l13.8,8.6l0.3,0.2c2.4,1.6,5.3,2.6,8.5,2.6c8.3,0,15.1-6.8,15.1-15.1
				C660.8,479.2,658.1,474.6,654.1,471.9L654.1,471.9z M604.3,358.7c0.4,0.2,0.7,0.4,0.9,0.6c4,2.7,6.7,7.3,6.7,12.5
				c0,8.3-6.8,15.1-15.1,15.1c-3.2,0-6.2-1-8.6-2.8l-59.9-37.4l0,0c-4.3-2.7-7.2-7.5-7.1-12.9c0-8.3,6.8-15.1,15.1-15.1
				c3.3,0,6.3,1,8.8,2.8L604.3,358.7z M861,272.4L861,272.4l-22.8-14.2c-2.5-1.8-5.5-2.8-8.7-2.8c-8.4,0-15.1,6.7-15.1,15.1
				c0,5.2,2.6,9.9,6.7,12.6l0,0l0.3,0.2l0.3,0.2l22.4,14c2.5,1.8,5.5,2.9,8.8,2.9c8.3,0,15.1-6.7,15.1-15.1
				C868,279.8,865.2,275.1,861,272.4L861,272.4z M680.1,406c4.2,2.7,7,7.4,7,12.7c0,8.4-6.8,15.1-15.1,15.1c-3.3,0-6.3-1.1-8.8-2.9
				l-22.4-14l-0.3-0.2l-0.3-0.2c-4-2.7-6.7-7.4-6.7-12.6c0-8.3,6.8-15.1,15.2-15.1c3.2,0,6.3,1,8.7,2.8L680.1,406L680.1,406z
				 M653,224.8c4.7,2.6,7.8,7.6,7.8,13.3c0,8.3-6.8,15.1-15.1,15.1c-3,0-5.9-0.9-8.3-2.5l-0.2-0.1l-37.4-23.4l-23.1-14.4
				c-17.1-10.2-21.9-17.4-9.7-41.6l0,0c5.8-11.8,12.4-23.2,20-34.1c14-21.2,23.3-21,41.1-10l48.5,30.3l62.2,38.9
				c4.8,2.5,8.1,6.3,8.1,13.4c0,7.1-9.3,15.1-15.1,15.1s-6.2-1-8.7-2.8l-61.9-38.6l-47.7-29.8l0,0c-7.7,10.7-14.3,22.2-19.9,34.1
				L653,224.8z M690.9,84.1c4.5,2.6,7.6,7.5,7.6,13.1c0,8.3-6.8,15.1-15.1,15.1c-2.9,0-5.5-0.8-7.8-2.2l0,0l-0.3-0.2l-0.3-0.2
				L645.7,91l-0.3-0.2l-0.3-0.2l0,0c-4.2-2.7-6.9-7.4-6.9-12.7c0-8.3,6.8-15.1,15.2-15.1c3.2,0,6.1,1,8.5,2.6L690.5,84L690.9,84.1z
				 M854.3,21.9c4.1,2.7,6.8,7.4,6.8,12.6c0,8.3-6.8,15.1-15.1,15.1c-3.1,0-6.1-1-8.5-2.6l-0.3-0.2l-19-11.8l-9.5-5.9l0,0
				c-4.3-2.7-7.1-7.4-7.1-12.8c0-8.4,6.8-15.1,15.1-15.1c3.4,0,6.6,1.1,9.1,3l27.6,17.2l0.3,0.2l0.3,0.2L854.3,21.9z M957.5,86.3
				c4.1,2.7,6.8,7.4,6.8,12.6c0,8.4-6.8,15.1-15.1,15.1c-3.1,0-6-1-8.4-2.6l-0.3-0.2l-34.1-21.3l-16-9.9l0,0
				c-4.3-2.7-7.1-7.4-7.1-12.8c0-8.4,6.8-15.1,15.1-15.1c3.4,0,6.5,1.1,9.1,3.1l49.1,30.7L957,86l0.3,0.2L957.5,86.3z M720.5,266.9
				L720.5,266.9l-11.6-7.2c-2.5-1.8-5.5-2.8-8.7-2.8c-8.4,0-15.2,6.7-15.2,15.1c0,5.2,2.7,9.9,6.7,12.6l0,0l0.3,0.2l0.3,0.2l11.2,7
				c2.5,1.8,5.5,2.8,8.8,2.9c8.4,0,15.1-6.7,15.1-15.1C727.5,274.3,724.7,269.6,720.5,266.9L720.5,266.9z M617.8,531.3
				c4.2,2.7,7,7.4,7,12.8c0,8.4-6.8,15.1-15.1,15.1c-3.3,0-6.4-1.1-8.8-2.9l-22.4-14l-0.3-0.2l-0.3-0.2c-4-2.7-6.7-7.3-6.7-12.6
				c0-8.3,6.8-15.1,15.2-15.1c3.3,0,6.3,1,8.7,2.8L617.8,531.3L617.8,531.3z M757.3,292.5c3.2,0,6.2,1,8.6,2.7l66.3,41.4
				c19.3,14,29.8,16.2,21.8,36.7l-0.2,0.4l-0.2,0.5l-0.1,0.2l-0.1,0.2l-0.2,0.4l-0.2,0.4l-0.2,0.4v0.1l-0.2,0.4l-0.2,0.4l-0.2,0.4
				l-0.2,0.3l-0.1,0.1l-0.2,0.4l-0.2,0.4l-0.2,0.4l-0.1,0.2l-0.1,0.2l-0.4,0.8l-0.2,0.4l0,0l-0.2,0.4l-0.2,0.4l-0.2,0.4l-0.1,0.3
				l-0.1,0.1l-0.2,0.4l-0.2,0.4c-6.7,12.1-15.9,21.9-28.1,28.9l0,0l-0.5,0.3l-0.1,0.1l-0.3,0.2l-1,0.6L819,413l-1.2,0.6l-0.1,0.1
				l-0.2,0.1l-0.4,0.2l-0.5,0.3l-0.5,0.3l-0.1,0.1l-0.4,0.2l-1,0.5l0,0l-0.1,0.1h-0.1l-1.4,0.6h-0.1l-0.4,0.2l-1.1,0.4l-0.1,0.1
				l-0.4,0.2l-0.6,0.2l-0.6,0.2h-0.1l-0.5,0.2l-0.6,0.2l-0.6,0.2h-0.1l-0.5,0.1l-0.6,0.2c-14.2,4.7-20.7,5.7-42.4-6.4
				c-44.4-27.7-5-3.1-49.5-30.8c-4.6-2.6-7.7-7.6-7.7-13.2c0-8.3,6.8-15.1,15.1-15.1c2.9,0,5.7,0.9,8,2.3l0.1,0.1l0.3,0.2
				c47,29.3,10.2,6.4,57.2,35.7c10.4-1.9,20.3-5.9,27.6-13.9c2.8-3.1,5.3-6.7,7.4-10.8l-51.5-32.2l-21.6-13.5
				c-4.6-2.6-7.7-7.5-7.7-13.2C742.1,299.2,748.9,292.5,757.3,292.5L757.3,292.5z M940.8,35.3l-9.6-6l0.1,0.1l-0.3-0.2l-0.2-0.1
				c-4.1-2.7-6.8-7.3-6.8-12.6c0-8.3,6.8-15.1,15.2-15.1c3.2,0,6.1,1,8.6,2.7l9.5,5.9c0.4,0.2,0.8,0.5,1.1,0.8v0.1
				c4,2.7,6.6,7.3,6.6,12.5c0,8.3-6.8,15-15.1,15C946.4,38.2,943.3,37.1,940.8,35.3L940.8,35.3z"/>
		</g>
	</g>
</g>
</svg>
